<?xml version="1.0" encoding="utf-8"?>
<!-- Generator: Adobe Illustrator 25.0.1, SVG Export Plug-In . SVG Version: 6.00 Build 0)  -->
<svg version="1.1" id="Layer_1" xmlns="http://www.w3.org/2000/svg" xmlns:xlink="http://www.w3.org/1999/xlink" x="0px" y="0px"
	 viewBox="0 0 3300 2200" style="enable-background:new 0 0 3300 2200;" xml:space="preserve">
<style type="text/css">
	.st0{fill:#FFFFFF;}
	.st1{fill:none;stroke:#000000;stroke-width:0.5;}
	.st2{font-family:'Arial-BoldMT';}
	.st3{font-size:12px;}
	.st4{font-family:'ArialMT';}
	.st5{fill:none;stroke:#00AEEF;stroke-width:0.5;}
	.st6{fill:#27AAE1;}
	.st7{fill:none;stroke:#27AAE1;stroke-width:0.5;}
</style>
<g id="Notes">
	<rect id="artboard" class="st0" width="3300" height="2200"/>
	<line class="st1" x1="263" y1="292" x2="3036" y2="292"/>
	<text transform="matrix(1 0 0 1 263 322)" class="st2 st3">Weight/Scale Variations</text>
	<text transform="matrix(1 0 0 1 536.0362 322)" class="st4 st3">Ultralight</text>
	<text transform="matrix(1 0 0 1 844.7501 322)" class="st4 st3">Thin</text>
	<text transform="matrix(1 0 0 1 1140.1193 322)" class="st4 st3">Light</text>
	<text transform="matrix(1 0 0 1 1428.8282 322)" class="st4 st3">Regular</text>
	<text transform="matrix(1 0 0 1 1725.2202 322)" class="st4 st3">Medium</text>
	<text transform="matrix(1 0 0 1 2018.2563 322)" class="st4 st3">Semibold</text>
	<text transform="matrix(1 0 0 1 2327.9712 322)" class="st4 st3">Bold</text>
	<text transform="matrix(1 0 0 1 2619.6831 322)" class="st4 st3">Heavy</text>
	<text transform="matrix(1 0 0 1 2918.728 322)" class="st4 st3">Black</text>
	<line class="st1" x1="263" y1="1903" x2="3036" y2="1903"/>
	<g transform="matrix(1 0 0 1 263 1933)">
		<path d="M9.2,0.8c4.3,0,7.9-3.6,7.9-7.9c0-4.3-3.6-7.9-7.9-7.9c-4.3,0-7.9,3.6-7.9,7.9C1.4-2.7,5,0.8,9.2,0.8z M9.2-0.7
			c-3.5,0-6.4-2.8-6.4-6.4c0-3.6,2.8-6.4,6.4-6.4c3.6,0,6.4,2.8,6.4,6.4C15.7-3.5,12.8-0.7,9.2-0.7z M6.4-6.3h2.1v2.1
			c0,0.4,0.3,0.7,0.7,0.7c0.4,0,0.7-0.3,0.7-0.7v-2.1h2.1c0.4,0,0.7-0.3,0.7-0.7c0-0.4-0.3-0.7-0.7-0.7H10v-2.1
			c0-0.4-0.3-0.8-0.7-0.8c-0.4,0-0.7,0.3-0.7,0.8v2.1H6.4C5.9-7.8,5.6-7.5,5.6-7C5.6-6.6,5.9-6.3,6.4-6.3z"/>
	</g>
	<g transform="matrix(1 0 0 1 281.506 1933)">
		<path d="M11.7,2.9c5.4,0,10-4.5,10-10c0-5.4-4.5-10-10-10c-5.4,0-10,4.5-10,10C1.7-1.6,6.3,2.9,11.7,2.9z M11.7,1.2
			c-4.6,0-8.3-3.7-8.3-8.3c0-4.6,3.7-8.3,8.3-8.3c4.6,0,8.3,3.7,8.3,8.3C20-2.4,16.3,1.2,11.7,1.2z M8-6.2h2.9v2.9
			c0,0.5,0.3,0.8,0.8,0.8c0.5,0,0.8-0.3,0.8-0.8v-2.9h2.9c0.5,0,0.8-0.3,0.8-0.8c0-0.5-0.3-0.8-0.8-0.8h-2.9v-2.9
			c0-0.5-0.3-0.8-0.8-0.8c-0.5,0-0.8,0.3-0.8,0.8v2.9H8C7.5-7.9,7.1-7.5,7.1-7C7.1-6.6,7.5-6.2,8-6.2z"/>
	</g>
	<g transform="matrix(1 0 0 1 304.924 1933)">
		<path d="M15,5.7c7,0,12.7-5.8,12.7-12.7c0-7-5.8-12.7-12.7-12.7C8-19.8,2.3-14,2.3-7.1C2.3-0.1,8,5.7,15,5.7z M15,3.8
			C8.9,3.8,4.1-1,4.1-7.1c0-6,4.8-10.9,10.9-10.9c6,0,10.9,4.9,10.9,10.9C25.9-1,21,3.8,15,3.8z M10.1-6.1h4v4
			c0,0.5,0.4,0.9,0.9,0.9c0.5,0,0.9-0.4,0.9-0.9v-4h4c0.5,0,0.9-0.4,0.9-0.9c0-0.5-0.4-0.9-0.9-0.9h-4v-4c0-0.6-0.4-0.9-0.9-0.9
			c-0.5,0-0.9,0.4-0.9,0.9v4h-4C9.5-7.9,9.1-7.6,9.1-7C9.1-6.5,9.5-6.1,10.1-6.1z"/>
	</g>
	<text transform="matrix(1 0 0 1 263 1953)" class="st2 st3">Design Variations</text>
	<text transform="matrix(1 0 0 1 263 1971)" class="st4 st3">Symbols are supported in up to nine weights and three scales.</text>
	<text transform="matrix(1 0 0 1 263 1989)" class="st4 st3">For optimal layout with text and other symbols, vertically align</text>
	<text transform="matrix(1 0 0 1 263 2007)" class="st4 st3">symbols with the adjacent text.</text>
	<line class="st5" x1="776" y1="1919" x2="776" y2="1933"/>
	<g transform="matrix(1 0 0 1 776 1933)">
		<path d="M3.3,0.1c0.5,0,0.8-0.2,1-0.7l1.3-3.5h5.8l1.3,3.5c0.2,0.5,0.4,0.7,0.9,0.7c0.5,0,0.8-0.3,0.8-0.8c0-0.2,0-0.3-0.1-0.5
			L9.7-13.4C9.4-14,9-14.3,8.4-14.3c-0.6,0-1,0.3-1.2,0.9L2.6-1.2C2.5-1,2.5-0.8,2.5-0.7C2.5-0.2,2.8,0.1,3.3,0.1z M6-5.5l2.4-6.6h0
			l2.4,6.6H6z"/>
	</g>
	<line class="st5" x1="792.8" y1="1919" x2="792.8" y2="1933"/>
	<text transform="matrix(1 0 0 1 776 1953)" class="st2 st3">Margins</text>
	<text transform="matrix(1 0 0 1 776 1971)" class="st4 st3">Leading and trailing margins on the left and right side of each symbol</text>
	<text transform="matrix(1 0 0 1 776 1989)" class="st4 st3">can be adjusted by modifying the x-location of the margin guidelines.</text>
	<text transform="matrix(1 0 0 1 776 2007)" class="st4 st3">Modifications are automatically applied proportionally to all</text>
	<text transform="matrix(1 0 0 1 776 2025)" class="st4 st3">scales and weights.</text>
	<g transform="matrix(1 0 0 1 1289 1933)">
		<path d="M2.8,1.9l1.7,1.7c0.9,0.9,1.8,0.8,2.8-0.2L17.5-7.9c0.3,0.1,0.5,0.1,0.8,0L19.4-8l0.7,0.7l0,0.6c0,0.5,0.1,0.9,0.6,1.4
			l0.8,0.7c0.5,0.5,1.1,0.5,1.6,0l2.9-2.9c0.5-0.5,0.4-1.1,0-1.5L25-9.9c-0.5-0.5-0.8-0.6-1.3-0.6l-0.6,0l-0.6-0.6l0.2-1.1
			c0.1-0.6,0-1-0.6-1.6L19.9-16c-3.3-3.3-7.8-3.2-10.7-0.4c-0.4,0.4-0.4,1-0.2,1.4c0.2,0.4,0.7,0.6,1.3,0.4c1.5-0.3,3-0.4,4.4,0.5
			l-0.6,1.5c-0.2,0.5-0.2,0.9-0.1,1.2L3-0.9C2.1,0,2,1,2.8,1.9z M10.8-16c2.4-1.8,5.7-1.5,7.9,0.8l2.4,2.4c0.2,0.2,0.3,0.4,0.2,0.8
			L21-10.5l1.5,1.5l1-0.1c0.3,0,0.3,0,0.5,0.2l0.6,0.6l-2.4,2.4l-0.6-0.6c-0.2-0.2-0.2-0.3-0.2-0.5l0.1-1L20-9.5l-1.5,0.3
			c-0.3,0.1-0.5,0-0.7-0.2l-2-2c-0.3-0.2-0.3-0.4-0.1-0.8l0.9-2.1c-1.6-1.5-3.6-2.1-5.6-1.5C10.7-15.7,10.6-15.8,10.8-16z M5.3,2.3
			L4.1,1.1C3.6,0.7,3.7,0.3,4.1,0L15-10.2l1.5,1.5l-10,11C6.1,2.7,5.7,2.8,5.3,2.3z"/>
	</g>
	<text transform="matrix(1 0 0 1 1289 1953)" class="st2 st3">Exporting</text>
	<text transform="matrix(1 0 0 1 1289 1971)" class="st4 st3">Symbols should be outlined when exporting to ensure the</text>
	<text transform="matrix(1 0 0 1 1289 1989)" class="st4 st3">design is preserved when submitting to Xcode.</text>
	<text id="template-version" transform="matrix(1 0 0 1 2958.8496 1933)" class="st4 st3">Template v.2.0</text>
	<text transform="matrix(1 0 0 1 2878.5762 1951)" class="st4 st3">Requires Xcode 12 or greater</text>
	<text transform="matrix(1 0 0 1 2885.25 1969)" class="st4 st3">Generated from envelope.fill</text>
	<text transform="matrix(1 0 0 1 2921.9238 1987)" class="st4 st3">Typeset at 100 points</text>
	<text transform="matrix(1 0 0 1 263 726)" class="st4 st3">Small</text>
	<text transform="matrix(1 0 0 1 263 1156)" class="st4 st3">Medium</text>
	<text transform="matrix(1 0 0 1 263 1586)" class="st4 st3">Large</text>
</g>
<g id="Guides">
	<g id="H-reference" transform="matrix(1 0 0 1 339 696)">
		<path class="st6" d="M1,0h2.7L13-24.5h32.8L55.1,0h2.6L30.6-70.5h-2.5L1,0z M29.3-67.1L29.3-67.1l15.5,40.4h-31L29.3-67.1z"/>
	</g>
	<line id="Baseline-S" class="st7" x1="263" y1="696" x2="3036" y2="696"/>
	<line id="Capline-S" class="st7" x1="263" y1="625.5" x2="3036" y2="625.5"/>
	<g id="H-reference_1_" transform="matrix(1 0 0 1 339 1126)">
		<path class="st6" d="M1,0h2.7L13-24.5h32.8L55.1,0h2.6L30.6-70.5h-2.5L1,0z M29.3-67.1L29.3-67.1l15.5,40.4h-31L29.3-67.1z"/>
	</g>
	<line id="Baseline-M" class="st7" x1="263" y1="1126" x2="3036" y2="1126"/>
	<line id="Capline-M" class="st7" x1="263" y1="1055.5" x2="3036" y2="1055.5"/>
	<g id="H-reference_2_" transform="matrix(1 0 0 1 339 1556)">
		<path class="st6" d="M1,0h2.7L13-24.5h32.8L55.1,0h2.6L30.6-70.5h-2.5L1,0z M29.3-67.1L29.3-67.1l15.5,40.4h-31L29.3-67.1z"/>
	</g>
	<line id="Baseline-L" class="st7" x1="263" y1="1556" x2="3036" y2="1556"/>
	<line id="Capline-L" class="st7" x1="263" y1="1485.5" x2="3036" y2="1485.5"/>
	<line id="left-margin" class="st5" x1="1383.5" y1="1030.8" x2="1383.5" y2="1150.1"/>
	<line id="right-margin" class="st5" x1="1516.2" y1="1030.8" x2="1516.2" y2="1150.1"/>
</g>
<g id="Symbols">
	<g id="Black-L" transform="matrix(1 0 0 1 2842.68 1556)">
		<path d="M90.7-30.9c2.9,0,5.5-1.5,8.6-4.6L154.6-91c-2.8-1.9-7.2-2.9-13.2-2.9H39.3c-5.7,0-10,0.9-12.6,2.8l55.4,55.6
			C85.3-32.4,87.8-30.9,90.7-30.9z M18.1,11l47.5-47.5L18.8-82.8c-1.8,2.7-2.7,6.9-2.7,12.6v69.8C16.1,4.8,16.8,8.6,18.1,11z
			 M163.3,11c1.3-2.4,2.1-6.2,2.1-11.3v-69.8c0-5.7-1-10-2.7-12.6l-46.8,46.3L163.3,11z M40,23.5h102.1c6.3,0,11-1.3,13.9-3.6
			l-48.3-48.4l-2.9,2.9c-4.6,4.5-9.1,6.7-14.1,6.7c-5,0-9.5-2.1-14.1-6.7l-2.9-2.8L25.5,19.9C28.5,22.3,33.3,23.5,40,23.5z"/>
	</g>
	<g id="Heavy-L" transform="matrix(1 0 0 1 2547.33 1556)">
		<path d="M89.4-30.1c2.8,0,5.4-1.4,8.3-4.4L153-89.6c-2.7-2.1-7.1-3.1-13.1-3.1h-102c-5.6,0-9.7,1-12.3,2.9l55.4,55.3
			C84-31.5,86.5-30.1,89.4-30.1z M18,10.5l46.8-46.6L18.5-81.9c-1.6,2.4-2.4,6.4-2.4,11.8v69.8C16.1,4.7,16.7,8.3,18,10.5z
			 M160.7,10.5c1.2-2.3,1.9-5.9,1.9-10.8v-69.8c0-5.4-0.8-9.3-2.4-11.7L114-36.1L160.7,10.5z M38.8,22.4h101.9
			c6.1,0,10.5-1.2,13.3-3.5l-47.7-47.5l-3.3,3.2c-4.5,4.4-8.8,6.5-13.7,6.5c-4.9,0-9.2-2.1-13.7-6.5l-3.3-3.2L24.9,18.8
			C27.7,21.1,32.4,22.4,38.8,22.4z"/>
	</g>
	<g id="Bold-L" transform="matrix(1 0 0 1 2252.16 1556)">
		<path d="M87.9-29.2c2.7,0,5.2-1.3,8.1-4.2l55-54.8c-2.5-2.1-6.9-3.2-12.9-3.2H36.4c-5.5,0-9.5,1-11.9,3l55.2,55
			C82.7-30.5,85.2-29.2,87.9-29.2z M17.9,10L64-35.7L18.2-80.9c-1.4,2.2-2.1,5.8-2.1,10.9v69.7C16.1,4.5,16.7,7.9,17.9,10z
			 M157.8,9.9c1.2-2.1,1.8-5.5,1.8-10.2V-70c0-5-0.7-8.5-2.1-10.7l-45.7,45.1L157.8,9.9z M37.5,21h101.7c5.8,0,10-1.2,12.5-3.4
			l-46.9-46.5l-3.6,3.7C96.8-21,92.6-19,87.9-19c-4.7,0-9-2-13.3-6.2l-3.7-3.6L24.2,17.6C26.8,19.8,31.3,21,37.5,21z"/>
	</g>
	<g id="Semibold-L" transform="matrix(1 0 0 1 1956.5 1556)">
		<path d="M86.9-28.5c2.7,0,5.2-1.3,8-4.1l54.9-54.4c-2.4-2.2-6.7-3.4-12.8-3.4H35.4c-5.5,0-9.4,1-11.6,3.1L79-32.6
			C81.7-29.8,84.2-28.5,86.9-28.5z M17.9,9.7l45.6-45.1L18-80.2c-1.3,2.1-1.9,5.4-1.9,10.2v69.7C16.1,4.3,16.7,7.7,17.9,9.7z
			 M155.8,9.5c1.1-2,1.7-5.3,1.7-9.9V-70c0-4.6-0.6-8-1.8-10l-45.3,44.6L155.8,9.5z M36.6,20.1h101.5c5.7,0,9.7-1.1,12-3.3L103.8-29
			l-3.9,3.9c-4.2,4.1-8.4,6.1-13,6.1c-4.6,0-8.8-2-13-6.1L70-29L23.7,16.8C26.2,18.9,30.5,20.1,36.6,20.1z"/>
	</g>
	<g id="Medium-L" transform="matrix(1 0 0 1 1660.59 1556)">
		<path d="M86.1-28.1c2.6,0,5.1-1.2,7.8-4l54.8-54.2c-2.3-2.3-6.6-3.4-12.8-3.4H34.6c-5.4,0-9.3,1-11.4,3.1L78.3-32
			C81-29.3,83.5-28.1,86.1-28.1z M17.8,9.4L63-35.2L17.8-79.7c-1.1,1.9-1.7,5.1-1.7,9.7v69.6C16.1,4.2,16.7,7.5,17.8,9.4z
			 M154.2,9.2c1.1-1.9,1.6-5,1.6-9.5V-70c0-4.4-0.5-7.7-1.6-9.5l-45,44.3L154.2,9.2z M35.9,19.4h101.4c5.6,0,9.4-1.1,11.6-3.2
			L103-29.1L98.9-25c-4.2,4-8.3,6-12.8,6c-4.5,0-8.6-2-12.8-6l-4.2-4.1L23.3,16.2C25.7,18.3,29.9,19.4,35.9,19.4z"/>
	</g>
	<g id="Regular-L" transform="matrix(1 0 0 1 1364.91 1556)">
		<path d="M85.1-27.4c2.6,0,5.1-1.2,7.7-3.8l54.7-54c-2.3-2.3-6.5-3.5-12.7-3.5H33.6c-5.4,0-9.1,1.1-11.2,3.2l55,54.3
			C80-28.7,82.6-27.4,85.1-27.4z M17.8,9l44.7-43.9L17.6-79c-1,1.7-1.5,4.7-1.5,9v69.6C16.1,4.1,16.7,7.2,17.8,9z M152.2,8.8
			c1-1.8,1.6-4.8,1.6-9.1V-70c0-4.2-0.5-7.1-1.4-8.8l-44.6,43.9L152.2,8.8z M35.1,18.5h101.2c5.4,0,9-1.1,11.1-3.1l-45.3-44.6
			l-4.4,4.3c-4.1,3.9-8.1,5.8-12.5,5.8c-4.4,0-8.4-1.9-12.5-5.8l-4.4-4.3L22.9,15.3C25.1,17.4,29.2,18.5,35.1,18.5z"/>
	</g>
	<g id="Light-L" transform="matrix(1 0 0 1 1069.15 1556)">
		<path d="M84.3-26.8c2.5,0,5.1-1.2,7.5-3.7l54.6-53.7c-2.1-2.5-6.3-3.8-12.5-3.8H33.1c-5.5,0-9.3,1.1-11.3,3.4l55,54.1
			C79.2-28,81.8-26.8,84.3-26.8z M17.9,9l45-43.7L17.6-78.9c-1,1.7-1.6,4.6-1.6,8.9v69.7C16.1,4.2,16.7,7.3,17.9,9z M150.3,8.7
			c1.1-1.7,1.6-4.7,1.6-9V-70c0-4.1-0.5-6.9-1.4-8.5l-44.7,43.8L150.3,8.7z M34,17.5h100.8c5.5,0,9.2-1.1,11.2-3.3l-45.3-44.1
			l-4.7,4.6c-3.8,3.6-7.7,5.4-11.9,5.4c-4.1,0-8.1-1.8-11.9-5.4l-4.7-4.6L22.3,14.5C24.4,16.5,28.3,17.5,34,17.5z"/>
	</g>
	<g id="Thin-L" transform="matrix(1 0 0 1 773.683 1556)">
		<path d="M83.2-25.9c2.5,0,5.1-1.2,7.3-3.4l54.3-53.2c-2-2.7-6-4-12.1-4H32.5c-5.7,0-9.5,1.2-11.5,3.5l54.8,53.7
			C78-27.2,80.8-25.9,83.2-25.9z M18.1,9.1l45.3-43.3L17.7-78.7c-1.1,1.6-1.7,4.4-1.7,8.6v69.8C16.1,4.2,16.7,7.4,18.1,9.1z
			 M147.7,8.5c1.2-1.6,1.7-4.5,1.7-8.7V-70c0-3.9-0.5-6.6-1.4-8.1l-44.9,43.8L147.7,8.5z M32.7,16.4H133c5.7,0,9.4-1.2,11.4-3.5
			L99.3-30.5l-5.1,4.9c-3.4,3.2-7.2,4.9-11,4.9c-3.8,0-7.6-1.7-11-4.9l-5-4.9L21.6,13.2C23.5,15.3,27.2,16.4,32.7,16.4z"/>
	</g>
	<g id="Ultralight-L" transform="matrix(1 0 0 1 477.607 1556)">
		<path d="M82.6-25.5c2.5,0,5.2-1.2,7.3-3.3l54.2-53c-1.9-2.8-5.9-4.2-11.9-4.2H32.1c-5.7,0-9.6,1.2-11.5,3.6l54.7,53.5
			C77.4-26.8,80.2-25.5,82.6-25.5z M18.2,9.1L63.6-34L17.8-78.6c-1.1,1.5-1.7,4.4-1.7,8.5v69.8C16.1,4.3,16.8,7.5,18.2,9.1z
			 M146.3,8.4c1.2-1.6,1.8-4.5,1.8-8.6V-70c0-3.8-0.5-6.4-1.4-7.9L101.7-34L146.3,8.4z M32,15.7h100c5.8,0,9.6-1.2,11.5-3.6
			l-45.1-43l-5.3,5.1c-3.2,3-6.9,4.7-10.5,4.7c-3.6,0-7.4-1.7-10.5-4.7l-5.3-5.1L21.2,12.6C23,14.7,26.7,15.7,32,15.7z"/>
	</g>
	<g id="Black-M" transform="matrix(1 0 0 1 2861.74 1126)">
		<path d="M71.6-32.7c2.4,0,4.4-1.2,6.9-3.7l43-43.4c-2.2-1.4-5.7-2.1-10.2-2.1H32c-4.6,0-8.1,0.7-10.3,2.1l43,43.4
			C67.3-33.8,69.3-32.7,71.6-32.7z M129.1,1.3c1.2-2.1,1.8-5.2,1.8-9.4v-54.2c0-4.9-0.9-8.5-2.5-10.9l-37,36.7L129.1,1.3z M14.2,1.3
			L52-36.5L15-73.2c-1.7,2.3-2.5,6-2.5,10.9v54.2C12.5-3.9,13.1-0.8,14.2,1.3z M32,11.5h79.3c5.3,0,9.2-1.1,11.7-3L84.6-30l-1.9,1.9
			c-3.6,3.6-7.1,5.3-11,5.3c-3.9,0-7.5-1.7-11.1-5.3l-1.9-1.8L20.3,8.4C22.8,10.4,26.7,11.5,32,11.5z"/>
	</g>
	<g id="Heavy-M" transform="matrix(1 0 0 1 2566.3 1126)">
		<path d="M70.4-31.9c2.3,0,4.2-1.1,6.7-3.5l42.9-43c-2.1-1.5-5.6-2.3-10.2-2.3H30.7c-4.5,0-7.8,0.7-9.9,2.2l42.9,43.1
			C66.2-33.1,68.1-31.9,70.4-31.9z M14.1,0.7l37.1-36.9L14.6-72.3c-1.4,2.1-2.2,5.5-2.2,10v54.2C12.5-4.1,13-1.2,14.1,0.7z
			 M126.7,0.7c1.1-2,1.6-4.8,1.6-8.8v-54.2c0-4.5-0.7-7.9-2.1-10l-36.4,36L126.7,0.7z M31,10.4h79.1c5,0,8.7-1,11-2.8L83.4-30
			l-2.2,2.2c-3.6,3.5-7,5.1-10.8,5.1c-3.9,0-7.3-1.7-10.8-5.1L57.3-30L19.7,7.5C22.1,9.4,25.9,10.4,31,10.4z"/>
	</g>
	<g id="Bold-M" transform="matrix(1 0 0 1 2270.98 1126)">
		<path d="M69-31.1c2.2,0,4.2-1.1,6.4-3.4l42.8-42.7c-2.1-1.6-5.5-2.4-10.2-2.4h-79c-4.3,0-7.5,0.7-9.4,2.3l42.9,42.8
			C64.9-32.2,66.8-31.1,69-31.1z M14,0.1l36.1-36L14.3-71.2c-1.2,1.9-1.8,4.9-1.8,9v54.1C12.5-4.3,13-1.6,14,0.1z M124.1,0.1
			c1-1.8,1.5-4.4,1.5-8.3v-54.1c0-4.1-0.6-7.1-1.8-8.9L88-35.8L124.1,0.1z M29.9,9.2h79c4.7,0,8.1-0.9,10.1-2.7L82.2-30.1l-2.6,2.6
			c-3.5,3.4-6.8,4.9-10.5,4.9c-3.8,0-7.1-1.6-10.6-4.9l-2.6-2.5L19.1,6.4C21.3,8.3,24.9,9.2,29.9,9.2z"/>
	</g>
	<g id="Semibold-M" transform="matrix(1 0 0 1 1975.22 1126)">
		<path d="M68.1-30.5c2.1,0,4-1,6.2-3.3L117-76.3c-2-1.6-5.3-2.4-10.1-2.4H28.1c-4.2,0-7.3,0.8-9.1,2.3l42.8,42.6
			C64.1-31.5,66-30.5,68.1-30.5z M13.9-0.2l35.5-35.3L14-70.5c-1,1.7-1.6,4.4-1.6,8.3v54C12.5-4.5,12.9-1.9,13.9-0.2z M122.3-0.3
			c0.9-1.7,1.4-4.2,1.4-7.9v-54c0-3.8-0.5-6.5-1.6-8.2L86.8-35.5L122.3-0.3z M29.1,8.3H108c4.4,0,7.6-0.9,9.5-2.5l-36.2-36l-2.8,2.8
			c-3.4,3.3-6.7,4.9-10.4,4.9c-3.7,0-7-1.6-10.4-4.9l-2.8-2.8L18.8,5.8C20.8,7.5,24.3,8.3,29.1,8.3z"/>
	</g>
	<g id="Medium-M" transform="matrix(1 0 0 1 1679.25 1126)">
		<path d="M67.4-30.1c2.1,0,4-1,6.2-3.2l42.6-42.2c-1.9-1.7-5.3-2.5-10-2.5H27.3c-4.2,0-7.2,0.8-8.9,2.3l42.8,42.4
			C63.4-31.1,65.3-30.1,67.4-30.1z M13.8-0.6l35.1-34.8L13.8-70c-0.9,1.6-1.4,4.2-1.4,7.8v54C12.5-4.6,12.9-2.1,13.8-0.6z
			 M120.9-0.6c0.8-1.5,1.3-4.1,1.3-7.6v-54c0-3.6-0.5-6.2-1.4-7.7L85.9-35.4L120.9-0.6z M28.5,7.7h78.8c4.3,0,7.3-0.8,9.1-2.4
			L80.6-30.2l-3,3c-3.4,3.3-6.6,4.8-10.2,4.8c-3.6,0-6.9-1.6-10.3-4.8l-3-3L18.4,5.2C20.4,6.8,23.8,7.7,28.5,7.7z"/>
	</g>
	<g id="Regular-M" transform="matrix(1 0 0 1 1383.49 1126)">
		<g id="_x34_98-twitter.png">
			<g>
				<path d="M120.3-69c-4,1.8-8.2,3-12.7,3.5c4.6-2.7,8.1-7.1,9.7-12.3c-4.3,2.5-9,4.4-14.1,5.4c-4-4.3-9.8-7-16.2-7
					C74.9-79.4,65-69.5,65-57.3c0,1.7,0.2,3.4,0.6,5.1C47.1-53.1,30.8-62,19.9-75.4c-1.9,3.3-3,7.1-3,11.1c0,7.7,3.7,14.5,9.6,18.4
					c-3.6-0.1-6.4-1.1-10.3-2.8c0,0.1,0,0.2,0,0.3c0,10.7,7.9,19.7,18,21.7c-1.9,0.5-3.7,0.8-5.7,0.8c-1.4,0-2.8-0.1-4.1-0.4
					c2.8,8.8,11,15.2,20.7,15.4C37.5-4.9,28-1.3,17.6-1.3c-1.8,0-3.5-0.1-5.3-0.3c9.8,6.3,21.4,10,34,10c40.7,0,63-33.7,63-63
					c0-1,0-1.9-0.1-2.9C113.6-60.7,117.3-64.6,120.3-69z"/>
			</g>
		</g>
	</g>
	<g id="Light-M" transform="matrix(1 0 0 1 1087.63 1126)">
		<path d="M65.7-29c2,0,4-0.9,5.9-2.9l42.3-41.7c-1.7-1.9-5-2.8-9.7-2.8H25.9c-4.2,0-7.1,0.8-8.7,2.5l42.6,42
			C61.7-29.9,63.7-29,65.7-29z M13.8-0.9l34.7-33.9L13.6-69.1c-0.8,1.3-1.2,3.7-1.2,7v54C12.5-4.7,12.9-2.3,13.8-0.9z M117.3-1.2
			c0.8-1.3,1.2-3.7,1.2-7v-54c0-3.2-0.3-5.4-1.1-6.7l-34.6,34L117.3-1.2z M26.9,6.1h78.3c4.2,0,7.1-0.9,8.6-2.5L78.7-30.8l-3.5,3.5
			c-3.1,3-6.2,4.4-9.5,4.4c-3.3,0-6.4-1.4-9.5-4.4l-3.5-3.5L17.5,3.7C19.2,5.3,22.4,6.1,26.9,6.1z"/>
	</g>
	<g id="Thin-M" transform="matrix(1 0 0 1 792.018 1126)">
		<path d="M64.7-28.2c2,0,4-0.9,5.8-2.7l42.1-41.4c-1.6-2-4.7-3-9.4-3H25.3c-4.3,0-7.3,0.9-8.8,2.7L59-30.9
			C60.7-29.2,62.8-28.2,64.7-28.2z M14-0.9l35-33.6L13.7-68.9c-0.8,1.2-1.3,3.5-1.3,6.8v54.1C12.5-4.6,13-2.2,14-0.9z M115-1.3
			c0.9-1.3,1.3-3.5,1.3-6.8v-54.1c0-3.1-0.4-5.2-1.1-6.3l-34.8,34L115-1.3z M25.6,5h77.8c4.3,0,7.3-0.9,8.8-2.7l-35-33.8l-3.8,3.8
			c-2.7,2.6-5.7,4-8.7,4c-3,0-6-1.4-8.7-4l-3.9-3.8l-35.3,34C18.4,4.2,21.3,5,25.6,5z"/>
	</g>
	<g id="Ultralight-M" transform="matrix(1 0 0 1 495.893 1126)">
		<path d="M64.2-27.8c1.9,0,4-0.9,5.7-2.6l42-41.1c-1.5-2.1-4.6-3.2-9.3-3.2H25c-4.4,0-7.4,0.9-8.9,2.8l42.5,41.5
			C60.2-28.8,62.4-27.8,64.2-27.8z M14.1-0.9l35.1-33.5L13.8-68.8c-0.9,1.2-1.3,3.4-1.3,6.6v54.1C12.5-4.6,13-2.1,14.1-0.9z
			 M113.8-1.4c0.9-1.2,1.4-3.5,1.4-6.7v-54.1c0-3-0.4-5-1.1-6.1L79.2-34.4L113.8-1.4z M25,4.4h77.6c4.4,0,7.4-0.9,8.8-2.8l-35-33.4
			l-4,3.9c-2.5,2.4-5.5,3.8-8.3,3.8c-2.9,0-5.8-1.3-8.3-3.8l-4-3.9L16.6,2.1C18,3.7,20.8,4.4,25,4.4z"/>
	</g>
	<g id="Black-S" transform="matrix(1 0 0 1 2877.35 696)">
		<path d="M56.1-33.2c1.9,0,3.4-0.9,5.4-2.9L95.1-70c-1.8-1.1-4.4-1.7-8-1.7H25c-3.6,0-6.3,0.6-8,1.7L50.7-36
			C52.6-34.1,54.2-33.2,56.1-33.2z M11.1-6.7l29.5-29.5l-29-28.7c-1.3,1.8-2,4.6-2,8.4V-14C9.8-10.7,10.3-8.3,11.1-6.7z M101-6.7
			c0.9-1.6,1.4-4,1.4-7.3v-42.5c0-3.8-0.7-6.6-2-8.4l-29,28.7L101-6.7z M25,1.3h62.1c4.1,0,7.2-0.8,9.1-2.3l-30-30l-1.5,1.5
			c-2.8,2.8-5.6,4.1-8.6,4.1c-3.1,0-5.9-1.3-8.7-4.1l-1.5-1.5l-30,30C17.8,0.4,20.9,1.3,25,1.3z"/>
	</g>
	<g id="Heavy-S" transform="matrix(1 0 0 1 2581.49 696)">
		<path d="M55.2-32.7c1.8,0,3.4-0.9,5.3-2.8L94-69.2c-1.7-1.2-4.4-1.8-8-1.8H24c-3.5,0-6.1,0.6-7.7,1.8L50-35.4
			C51.9-33.5,53.4-32.7,55.2-32.7z M11-7.1L39.9-36L11.5-64.2c-1.1,1.7-1.7,4.2-1.7,7.8V-14C9.8-10.8,10.2-8.6,11-7.1z M99.4-7.1
			c0.8-1.5,1.3-3.8,1.3-6.9v-42.4c0-3.6-0.6-6.2-1.7-7.8L70.5-36L99.4-7.1z M24.4,0.5h62c3.9,0,6.7-0.8,8.5-2.2L65.5-31.1l-1.8,1.7
			c-2.8,2.8-5.5,4.1-8.5,4.1c-3,0-5.7-1.3-8.5-4.1l-1.7-1.7L15.5-1.7C17.4-0.2,20.3,0.5,24.4,0.5z"/>
	</g>
	<g id="Bold-S" transform="matrix(1 0 0 1 2285.75 696)">
		<path d="M54.2-32.1c1.7,0,3.2-0.8,5.1-2.6l33.5-33.5c-1.6-1.2-4.3-1.8-8-1.8h-62c-3.4,0-5.8,0.6-7.3,1.8l33.6,33.6
			C51-33,52.5-32.1,54.2-32.1z M10.9-7.5l28.3-28.2l-28-27.7c-0.9,1.5-1.4,3.8-1.4,7V-14C9.8-11,10.2-8.9,10.9-7.5z M97.6-7.5
			c0.7-1.4,1.1-3.6,1.1-6.5v-42.4c0-3.2-0.5-5.6-1.4-7l-28,27.6L97.6-7.5z M23.6-0.3h61.9c3.6,0,6.2-0.7,7.9-2.1L64.6-31.1l-2,2
			c-2.8,2.7-5.4,4-8.4,4c-3,0-5.7-1.3-8.4-4l-2-2L15.1-2.4C16.8-1,19.7-0.3,23.6-0.3z"/>
	</g>
	<g id="Semibold-S" transform="matrix(1 0 0 1 1989.7 696)">
		<path d="M53.6-31.7c1.7,0,3.2-0.8,5-2.6L92-67.7c-1.6-1.3-4.2-1.9-8-1.9H22.2c-3.3,0-5.7,0.6-7.1,1.8l33.6,33.4
			C50.4-32.5,51.9-31.7,53.6-31.7z M10.8-7.9l27.8-27.7L11-62.9c-0.8,1.4-1.2,3.5-1.2,6.5v42.3C9.8-11.2,10.1-9.1,10.8-7.9z
			 M96.3-7.9c0.7-1.3,1-3.3,1-6.2v-42.3c0-3-0.4-5.2-1.2-6.5L68.6-35.6L96.3-7.9z M23.1-0.8H85c3.5,0,6-0.7,7.4-2L64-31.1L61.9-29
			c-2.8,2.7-5.4,4-8.3,4c-2.9,0-5.6-1.3-8.3-4l-2.1-2.1L14.8-2.9C16.5-1.6,19.2-0.8,23.1-0.8z"/>
	</g>
	<g id="Medium-S" transform="matrix(1 0 0 1 1693.48 696)">
		<path d="M53.1-31.4c1.7,0,3.1-0.8,4.9-2.5l33.4-33.3c-1.5-1.3-4.2-1.9-8-1.9H21.6c-3.2,0-5.6,0.6-6.9,1.8L48.2-34
			C50-32.2,51.4-31.4,53.1-31.4z M10.7-8.1l27.4-27.3L10.8-62.5c-0.7,1.3-1,3.3-1,6.2v42.3C9.8-11.3,10.1-9.3,10.7-8.1z M95.4-8.1
			c0.6-1.2,1-3.2,1-6v-42.3c0-2.8-0.4-4.9-1.1-6.1L68-35.4L95.4-8.1z M22.7-1.3h61.9c3.3,0,5.7-0.6,7-1.9l-28-28l-2.2,2.2
			C58.5-26.2,56-25,53.1-25c-2.9,0-5.5-1.2-8.3-3.9l-2.3-2.2L14.6-3.2C16.2-2,18.9-1.3,22.7-1.3z"/>
	</g>
	<g id="Regular-S" transform="matrix(1 0 0 1 1397.43 696)">
		<path d="M52.4-31.1c1.6,0,3-0.7,4.7-2.5l33.4-33.1c-1.5-1.3-4.2-2-8-2H20.8c-3.2,0-5.4,0.6-6.7,1.8l33.5,33.2
			C49.4-31.8,50.8-31.1,52.4-31.1z M10.6-8.4l27-26.9L10.6-62c-0.5,1.1-0.8,3-0.8,5.7v42.2C9.8-11.4,10.1-9.5,10.6-8.4z M94.2-8.4
			c0.6-1.1,0.9-3,0.9-5.7v-42.2c0-2.6-0.3-4.5-0.9-5.6l-27,26.7L94.2-8.4z M22.2-1.9H84c3.1,0,5.3-0.6,6.6-1.8L63-31.2l-2.4,2.4
			c-2.7,2.6-5.3,3.9-8.2,3.9c-2.9,0-5.4-1.2-8.2-3.9l-2.4-2.4L14.4-3.7C15.9-2.5,18.5-1.9,22.2-1.9z"/>
	</g>
	<g id="Light-S" transform="matrix(1 0 0 1 1101.47 696)">
		<path d="M51.8-30.6c1.6,0,3.1-0.7,4.7-2.3l33.2-32.9c-1.4-1.4-4-2.1-7.7-2.1H20.5c-3.3,0-5.5,0.6-6.8,1.9l33.4,33.1
			C48.7-31.3,50.2-30.6,51.8-30.6z M10.8-8.3l27.1-26.7L10.7-61.8c-0.6,1-0.9,2.9-0.9,5.5v42.2C9.8-11.4,10.1-9.5,10.8-8.3z
			 M92.6-8.5c0.6-1.1,0.9-2.9,0.9-5.6v-42.2c0-2.5-0.3-4.3-0.9-5.4L65.6-35.1L92.6-8.5z M21.4-2.5h61.5c3.3,0,5.5-0.6,6.7-1.9
			L62.1-31.5L59.4-29c-2.5,2.4-5,3.6-7.7,3.6c-2.7,0-5.1-1.1-7.7-3.6l-2.6-2.6L13.9-4.4C15.3-3.2,17.8-2.5,21.4-2.5z"/>
	</g>
	<g id="Thin-S" transform="matrix(1 0 0 1 805.739 696)">
		<path d="M50.9-29.9c1.6,0,3.1-0.7,4.5-2.1l33.1-32.5c-1.2-1.6-3.8-2.3-7.4-2.3H20c-3.4,0-5.7,0.7-6.9,2.1L46.4-32
			C47.8-30.7,49.4-29.9,50.9-29.9z M10.9-8.3l27.3-26.4L10.7-61.7c-0.6,1-1,2.7-1,5.3V-14C9.8-11.3,10.2-9.4,10.9-8.3z M90.6-8.6
			c0.7-1,1-2.8,1-5.4v-42.3c0-2.4-0.3-4.1-0.9-5L63.5-34.8L90.6-8.6z M20.3-3.5h61.1c3.4,0,5.7-0.7,6.8-2.1L60.8-32.1l-2.9,2.9
			c-2.2,2.1-4.5,3.2-7,3.2c-2.4,0-4.7-1.1-6.9-3.2l-3-2.9L13.3-5.4C14.6-4.2,16.9-3.5,20.3-3.5z"/>
	</g>
	<g id="Ultralight-S" transform="matrix(1 0 0 1 509.54 696)">
		<path d="M50.4-29.5c1.5,0,3.1-0.7,4.4-2.1l33-32.3c-1.2-1.7-3.7-2.4-7.3-2.4H19.7c-3.4,0-5.8,0.7-7,2.1L46-31.6
			C47.3-30.3,49-29.5,50.4-29.5z M11-8.3l27.5-26.3l-27.7-27c-0.7,1-1,2.7-1,5.3V-14C9.8-11.2,10.2-9.3,11-8.3z M89.5-8.7
			c0.7-1,1.1-2.7,1.1-5.3v-42.4c0-2.3-0.3-4-0.9-4.9L62.4-34.6L89.5-8.7z M19.8-4h60.9c3.4,0,5.7-0.7,6.9-2.1L60.2-32.4l-3.1,3
			c-2.1,1.9-4.3,3-6.6,3c-2.3,0-4.6-1.1-6.6-3l-3.1-3L13-5.9C14.2-4.6,16.5-4,19.8-4z"/>
	</g>
</g>
</svg>
